<mxfile host="app.diagrams.net" modified="2020-11-19T12:51:02.468Z" agent="5.0 (Windows NT 10.0; Win64; x64) AppleWebKit/537.36 (KHTML, like Gecko) Chrome/86.0.4240.198 Safari/537.36 Edg/86.0.622.69" etag="sS26jIMmjEjghnWg9Y9j" version="13.9.7" type="github">
  <diagram id="tDES6owhoY9OK84MQzlR" name="Page-1">
    <mxGraphModel dx="1422" dy="866" grid="1" gridSize="10" guides="1" tooltips="1" connect="1" arrows="1" fold="1" page="1" pageScale="1" pageWidth="1169" pageHeight="827" math="0" shadow="0">
      <root>
        <mxCell id="0" />
        <mxCell id="1" parent="0" />
        <mxCell id="lAhWVrg0YMu5Evwh2pB1-1" value="Przeładunek" style="whiteSpace=wrap;html=1;align=center;" vertex="1" parent="1">
          <mxGeometry x="360" y="450" width="100" height="40" as="geometry" />
        </mxCell>
        <mxCell id="lAhWVrg0YMu5Evwh2pB1-2" value="Port" style="whiteSpace=wrap;html=1;align=center;" vertex="1" parent="1">
          <mxGeometry x="360" y="680" width="100" height="40" as="geometry" />
        </mxCell>
        <mxCell id="lAhWVrg0YMu5Evwh2pB1-4" value="rodzaj ładunku" style="whiteSpace=wrap;html=1;align=center;" vertex="1" parent="1">
          <mxGeometry x="400" y="220" width="100" height="40" as="geometry" />
        </mxCell>
        <mxCell id="lAhWVrg0YMu5Evwh2pB1-5" value="ma&lt;span style=&quot;color: rgba(0 , 0 , 0 , 0) ; font-family: monospace ; font-size: 0px&quot;&gt;%3CmxGraphModel%3E%3Croot%3E%3CmxCell%20id%3D%220%22%2F%3E%3CmxCell%20id%3D%221%22%20parent%3D%220%22%2F%3E%3CmxCell%20id%3D%222%22%20value%3D%22Attribute%22%20style%3D%22ellipse%3BwhiteSpace%3Dwrap%3Bhtml%3D1%3Balign%3Dcenter%3B%22%20vertex%3D%221%22%20parent%3D%221%22%3E%3CmxGeometry%20x%3D%22160%22%20y%3D%22310%22%20width%3D%22100%22%20height%3D%2240%22%20as%3D%22geometry%22%2F%3E%3C%2FmxCell%3E%3C%2Froot%3E%3C%2FmxGraphModel%3E&lt;/span&gt;" style="shape=rhombus;perimeter=rhombusPerimeter;whiteSpace=wrap;html=1;align=center;" vertex="1" parent="1">
          <mxGeometry x="350" y="560" width="120" height="60" as="geometry" />
        </mxCell>
        <mxCell id="lAhWVrg0YMu5Evwh2pB1-6" value="" style="endArrow=none;html=1;rounded=0;exitX=0.5;exitY=1;exitDx=0;exitDy=0;entryX=0.5;entryY=0;entryDx=0;entryDy=0;" edge="1" parent="1" source="lAhWVrg0YMu5Evwh2pB1-5" target="lAhWVrg0YMu5Evwh2pB1-2">
          <mxGeometry relative="1" as="geometry">
            <mxPoint x="510" y="640" as="sourcePoint" />
            <mxPoint x="670" y="640" as="targetPoint" />
          </mxGeometry>
        </mxCell>
        <mxCell id="lAhWVrg0YMu5Evwh2pB1-7" value="1" style="resizable=0;html=1;align=right;verticalAlign=bottom;" connectable="0" vertex="1" parent="lAhWVrg0YMu5Evwh2pB1-6">
          <mxGeometry x="1" relative="1" as="geometry" />
        </mxCell>
        <mxCell id="lAhWVrg0YMu5Evwh2pB1-8" value="" style="endArrow=none;html=1;rounded=0;exitX=0.5;exitY=0;exitDx=0;exitDy=0;entryX=0.5;entryY=1;entryDx=0;entryDy=0;" edge="1" parent="1" source="lAhWVrg0YMu5Evwh2pB1-5" target="lAhWVrg0YMu5Evwh2pB1-1">
          <mxGeometry relative="1" as="geometry">
            <mxPoint x="600" y="530" as="sourcePoint" />
            <mxPoint x="760" y="530" as="targetPoint" />
          </mxGeometry>
        </mxCell>
        <mxCell id="lAhWVrg0YMu5Evwh2pB1-9" value="N" style="resizable=0;html=1;align=right;verticalAlign=bottom;" connectable="0" vertex="1" parent="lAhWVrg0YMu5Evwh2pB1-8">
          <mxGeometry x="1" relative="1" as="geometry">
            <mxPoint x="10" y="20" as="offset" />
          </mxGeometry>
        </mxCell>
        <mxCell id="lAhWVrg0YMu5Evwh2pB1-10" value="skład się z" style="shape=rhombus;perimeter=rhombusPerimeter;whiteSpace=wrap;html=1;align=center;" vertex="1" parent="1">
          <mxGeometry x="370" y="350" width="120" height="60" as="geometry" />
        </mxCell>
        <mxCell id="lAhWVrg0YMu5Evwh2pB1-12" value="" style="endArrow=none;html=1;rounded=0;exitX=0.5;exitY=1;exitDx=0;exitDy=0;entryX=0.5;entryY=0;entryDx=0;entryDy=0;" edge="1" parent="1" source="lAhWVrg0YMu5Evwh2pB1-10" target="lAhWVrg0YMu5Evwh2pB1-1">
          <mxGeometry relative="1" as="geometry">
            <mxPoint x="510" y="640" as="sourcePoint" />
            <mxPoint x="670" y="640" as="targetPoint" />
          </mxGeometry>
        </mxCell>
        <mxCell id="lAhWVrg0YMu5Evwh2pB1-13" value="1" style="resizable=0;html=1;align=right;verticalAlign=bottom;" connectable="0" vertex="1" parent="lAhWVrg0YMu5Evwh2pB1-12">
          <mxGeometry x="1" relative="1" as="geometry" />
        </mxCell>
        <mxCell id="lAhWVrg0YMu5Evwh2pB1-14" value="" style="endArrow=none;html=1;rounded=0;entryX=0.5;entryY=1;entryDx=0;entryDy=0;exitX=0.5;exitY=0;exitDx=0;exitDy=0;" edge="1" parent="1" source="lAhWVrg0YMu5Evwh2pB1-10" target="lAhWVrg0YMu5Evwh2pB1-4">
          <mxGeometry relative="1" as="geometry">
            <mxPoint x="440" y="370" as="sourcePoint" />
            <mxPoint x="320" y="320" as="targetPoint" />
          </mxGeometry>
        </mxCell>
        <mxCell id="lAhWVrg0YMu5Evwh2pB1-15" value="N" style="resizable=0;html=1;align=right;verticalAlign=bottom;" connectable="0" vertex="1" parent="lAhWVrg0YMu5Evwh2pB1-14">
          <mxGeometry x="1" relative="1" as="geometry">
            <mxPoint x="30" y="10" as="offset" />
          </mxGeometry>
        </mxCell>
        <UserObject label="" id="lAhWVrg0YMu5Evwh2pB1-18">
          <mxCell style="rounded=0;orthogonalLoop=1;jettySize=auto;html=1;endArrow=none;endFill=0;" edge="1" parent="1" source="lAhWVrg0YMu5Evwh2pB1-17" target="lAhWVrg0YMu5Evwh2pB1-4">
            <mxGeometry relative="1" as="geometry" />
          </mxCell>
        </UserObject>
        <mxCell id="lAhWVrg0YMu5Evwh2pB1-17" value="nazwa" style="ellipse;whiteSpace=wrap;html=1;align=center;" vertex="1" parent="1">
          <mxGeometry x="270" y="110" width="100" height="40" as="geometry" />
        </mxCell>
        <mxCell id="lAhWVrg0YMu5Evwh2pB1-22" value="" style="edgeStyle=none;rounded=0;orthogonalLoop=1;jettySize=auto;html=1;endArrow=none;endFill=0;" edge="1" parent="1" source="lAhWVrg0YMu5Evwh2pB1-19" target="lAhWVrg0YMu5Evwh2pB1-4">
          <mxGeometry relative="1" as="geometry" />
        </mxCell>
        <mxCell id="lAhWVrg0YMu5Evwh2pB1-19" value="id_ładunku" style="ellipse;whiteSpace=wrap;html=1;align=center;" vertex="1" parent="1">
          <mxGeometry x="220" y="210" width="100" height="40" as="geometry" />
        </mxCell>
        <mxCell id="lAhWVrg0YMu5Evwh2pB1-21" value="" style="edgeStyle=none;rounded=0;orthogonalLoop=1;jettySize=auto;html=1;endArrow=none;endFill=0;" edge="1" parent="1" source="lAhWVrg0YMu5Evwh2pB1-20" target="lAhWVrg0YMu5Evwh2pB1-4">
          <mxGeometry relative="1" as="geometry" />
        </mxCell>
        <mxCell id="lAhWVrg0YMu5Evwh2pB1-20" value="ilość" style="ellipse;whiteSpace=wrap;html=1;align=center;" vertex="1" parent="1">
          <mxGeometry x="440" y="120" width="100" height="40" as="geometry" />
        </mxCell>
        <mxCell id="lAhWVrg0YMu5Evwh2pB1-24" value="" style="edgeStyle=none;rounded=0;orthogonalLoop=1;jettySize=auto;html=1;endArrow=none;endFill=0;" edge="1" parent="1" source="lAhWVrg0YMu5Evwh2pB1-23" target="lAhWVrg0YMu5Evwh2pB1-2">
          <mxGeometry relative="1" as="geometry" />
        </mxCell>
        <mxCell id="lAhWVrg0YMu5Evwh2pB1-23" value="id_portu" style="ellipse;whiteSpace=wrap;html=1;align=center;" vertex="1" parent="1">
          <mxGeometry x="190" y="680" width="100" height="40" as="geometry" />
        </mxCell>
        <mxCell id="lAhWVrg0YMu5Evwh2pB1-26" value="" style="edgeStyle=none;rounded=0;orthogonalLoop=1;jettySize=auto;html=1;endArrow=none;endFill=0;" edge="1" parent="1" source="lAhWVrg0YMu5Evwh2pB1-25" target="lAhWVrg0YMu5Evwh2pB1-2">
          <mxGeometry relative="1" as="geometry" />
        </mxCell>
        <mxCell id="lAhWVrg0YMu5Evwh2pB1-25" value="nazwa portu" style="ellipse;whiteSpace=wrap;html=1;align=center;" vertex="1" parent="1">
          <mxGeometry x="430" y="760" width="100" height="40" as="geometry" />
        </mxCell>
        <mxCell id="lAhWVrg0YMu5Evwh2pB1-28" value="" style="edgeStyle=none;rounded=0;orthogonalLoop=1;jettySize=auto;html=1;endArrow=none;endFill=0;" edge="1" parent="1" source="lAhWVrg0YMu5Evwh2pB1-27" target="lAhWVrg0YMu5Evwh2pB1-1">
          <mxGeometry relative="1" as="geometry" />
        </mxCell>
        <mxCell id="lAhWVrg0YMu5Evwh2pB1-27" value="Rok" style="ellipse;whiteSpace=wrap;html=1;align=center;" vertex="1" parent="1">
          <mxGeometry x="150" y="450" width="100" height="40" as="geometry" />
        </mxCell>
        <mxCell id="lAhWVrg0YMu5Evwh2pB1-30" value="" style="edgeStyle=none;rounded=0;orthogonalLoop=1;jettySize=auto;html=1;endArrow=none;endFill=0;" edge="1" parent="1" source="lAhWVrg0YMu5Evwh2pB1-29" target="lAhWVrg0YMu5Evwh2pB1-1">
          <mxGeometry relative="1" as="geometry" />
        </mxCell>
        <mxCell id="lAhWVrg0YMu5Evwh2pB1-29" value="wyładunek&lt;span style=&quot;color: rgba(0 , 0 , 0 , 0) ; font-family: monospace ; font-size: 0px&quot;&gt;%3CmxGraphModel%3E%3Croot%3E%3CmxCell%20id%3D%220%22%2F%3E%3CmxCell%20id%3D%221%22%20parent%3D%220%22%2F%3E%3CmxCell%20id%3D%222%22%20value%3D%22Attribute%22%20style%3D%22ellipse%3BwhiteSpace%3Dwrap%3Bhtml%3D1%3Balign%3Dcenter%3B%22%20vertex%3D%221%22%20parent%3D%221%22%3E%3CmxGeometry%20x%3D%22160%22%20y%3D%22310%22%20width%3D%22100%22%20height%3D%2240%22%20as%3D%22geometry%22%2F%3E%3C%2FmxCell%3E%3C%2Froot%3E%3C%2FmxGraphModel%3E&lt;/span&gt;" style="ellipse;whiteSpace=wrap;html=1;align=center;" vertex="1" parent="1">
          <mxGeometry x="570" y="380" width="100" height="40" as="geometry" />
        </mxCell>
        <mxCell id="lAhWVrg0YMu5Evwh2pB1-32" value="" style="edgeStyle=none;rounded=0;orthogonalLoop=1;jettySize=auto;html=1;endArrow=none;endFill=0;" edge="1" parent="1" source="lAhWVrg0YMu5Evwh2pB1-31" target="lAhWVrg0YMu5Evwh2pB1-1">
          <mxGeometry relative="1" as="geometry" />
        </mxCell>
        <mxCell id="lAhWVrg0YMu5Evwh2pB1-31" value="Załadunek" style="ellipse;whiteSpace=wrap;html=1;align=center;" vertex="1" parent="1">
          <mxGeometry x="560" y="470" width="100" height="40" as="geometry" />
        </mxCell>
      </root>
    </mxGraphModel>
  </diagram>
</mxfile>
